# xmcd
#
# Track frame offsets: 
#        150
#        15247
#        29937
#        42993
#        61733
#        75701
#        94518
#        111017
#        128922
#
# Disc length: 1976 seconds
#
# Revision: 0
# Processed by: cddbd v1.5.2PL0 Copyright (c) Steve Scherf et al.
# Submitted via: ExactAudioCopy v1.0b3
#
DISCID=6907b609
DTITLE=Adolphson-Falk - 50
DYEAR=2018
DGENRE=Pop
TTITLE0=Just då
TTITLE1=Jag tog mitt tåg i tid
TTITLE2=Större än förut
TTITLE3=Det går mot kväll
TTITLE4=En väg som leder mig hem
TTITLE5=När orden inte längre räcker till
TTITLE6=En gåva
TTITLE7=Tensta torg
TTITLE8=Kände du kylan
EXTD=
EXTT0=
EXTT1=
EXTT2=
EXTT3=
EXTT4=
EXTT5=
EXTT6=
EXTT7=
EXTT8=
PLAYORDER=
